<svg xmlns="http://www.w3.org/2000/svg" viewBox="0 0 800 400" width="800" height="400">
  <defs>
    <g id="x-mark">
      <path d="M -3 -3 L 3 3 M -3 3 L 3 -3" stroke="#f87171" stroke-width="1.5" stroke-linecap="round" />
    </g>
    <g id="check-mark">
      <path d="M -4 0 L -1 3 L 5 -4" stroke="#10b981" stroke-width="2" fill="none" stroke-linecap="round" stroke-linejoin="round" />
    </g>
  </defs>

  <!-- Background -->
  <rect width="100%" height="100%" fill="#09090b" />

  <!-- Area under the curve -->
  <path d="M 80.67 340 
           L 80.67 295.00 L 101.33 256.75 L 122.00 224.24 L 142.67 196.60 
           L 163.33 173.11 L 184.00 153.14 L 204.67 136.17 L 225.33 121.75 
           L 246.00 109.49 L 266.67 99.06 L 287.33 90.20 L 308.00 82.67 
           L 328.67 76.27 L 349.33 70.83 L 370.00 66.21 L 390.67 62.28 
           L 411.33 58.93 L 432.00 56.09 L 452.67 53.68 L 473.33 51.63 
           L 494.00 49.88 L 514.67 48.40 L 535.33 47.14 L 556.00 46.07 
           L 576.67 45.16 L 597.33 44.39 L 618.00 43.73 L 638.67 43.17 
           L 659.33 42.69 L 680.00 42.29 
           L 680 340 Z" 
        fill="#8b5cf6" opacity="0.03" />

  <!-- Horizontal dashed line: near-certain (y=0.95) -->
  <line x1="60" y1="55" x2="680" y2="55" stroke="#71717a" stroke-width="1.5" stroke-dasharray="4 4" opacity="0.6" />
  <text x="65" y="50" fill="#71717a" font-family="system-ui" font-size="12">near-certain</text>

  <!-- Horizontal dashed line: single experiment (p=0.15) -->
  <line x1="60" y1="295" x2="680" y2="295" stroke="#8b5cf6" stroke-width="1.5" stroke-dasharray="4 4" opacity="0.4" />
  <text x="680" y="288" fill="#8b5cf6" font-family="system-ui" font-size="12" opacity="0.8" text-anchor="end">single experiment: p = 0.15</text>

  <!-- Axes -->
  <line x1="60" y1="340" x2="680" y2="340" stroke="#3f3f46" stroke-width="1.5" />
  <line x1="60" y1="340" x2="60" y2="40" stroke="#3f3f46" stroke-width="1.5" />

  <!-- Axis Labels -->
  <text x="680" y="380" fill="#a1a1aa" font-family="system-ui" font-size="12" text-anchor="end">Number of experiments (n)</text>
  <text x="60" y="25" fill="#a1a1aa" font-family="system-ui" font-size="12" text-anchor="start">P(program success)</text>

  <!-- Y-axis Ticks & Labels -->
  <g fill="#a1a1aa" font-family="monospace" font-size="11" text-anchor="end">
    <text x="50" y="344">0</text>
    
    <line x1="55" y1="265" x2="60" y2="265" stroke="#3f3f46" />
    <text x="50" y="269">0.25</text>
    
    <line x1="55" y1="190" x2="60" y2="190" stroke="#3f3f46" />
    <text x="50" y="194">0.50</text>
    
    <line x1="55" y1="115" x2="60" y2="115" stroke="#3f3f46" />
    <text x="50" y="119">0.75</text>
    
    <line x1="55" y1="40" x2="60" y2="40" stroke="#3f3f46" />
    <text x="50" y="44">1.0</text>
  </g>

  <!-- X-axis Ticks & Labels -->
  <g fill="#a1a1aa" font-family="monospace" font-size="11" text-anchor="middle">
    <line x1="80.67" y1="340" x2="80.67" y2="345" stroke="#3f3f46" />
    <text x="80.67" y="360">1</text>
    
    <line x1="163.33" y1="340" x2="163.33" y2="345" stroke="#3f3f46" />
    <text x="163.33" y="360">5</text>
    
    <line x1="266.67" y1="340" x2="266.67" y2="345" stroke="#3f3f46" />
    <text x="266.67" y="360">10</text>
    
    <line x1="370.00" y1="340" x2="370.00" y2="345" stroke="#3f3f46" />
    <text x="370.00" y="360">15</text>
    
    <line x1="473.33" y1="340" x2="473.33" y2="345" stroke="#3f3f46" />
    <text x="473.33" y="360">20</text>
    
    <line x1="576.67" y1="340" x2="576.67" y2="345" stroke="#3f3f46" />
    <text x="576.67" y="360">25</text>
    
    <line x1="680.00" y1="340" x2="680.00" y2="345" stroke="#3f3f46" />
    <text x="680.00" y="360">30</text>
  </g>

  <!-- Main Curve -->
  <path d="M 80.67 295.00 
           L 101.33 256.75 L 122.00 224.24 L 142.67 196.60 L 163.33 173.11 
           L 184.00 153.14 L 204.67 136.17 L 225.33 121.75 L 246.00 109.49 
           L 266.67 99.06 L 287.33 90.20 L 308.00 82.67 L 328.67 76.27 
           L 349.33 70.83 L 370.00 66.21 L 390.67 62.28 L 411.33 58.93 
           L 432.00 56.09 L 452.67 53.68 L 473.33 51.63 L 494.00 49.88 
           L 514.67 48.40 L 535.33 47.14 L 556.00 46.07 L 576.67 45.16 
           L 597.33 44.39 L 618.00 43.73 L 638.67 43.17 L 659.33 42.69 
           L 680.00 42.29" 
        fill="none" stroke="#8b5cf6" stroke-width="3" stroke-linecap="round" stroke-linejoin="round" />

  <!-- Scattered X marks (failed experiments) -->
  <use href="#x-mark" x="75" y="330" opacity="0.4" />
  <use href="#x-mark" x="95" y="315" opacity="0.4" />
  <use href="#x-mark" x="110" y="328" opacity="0.4" />
  <use href="#x-mark" x="130" y="312" opacity="0.4" />
  <use href="#x-mark" x="145" y="325" opacity="0.4" />
  <use href="#x-mark" x="165" y="318" opacity="0.4" />
  <use href="#x-mark" x="185" y="332" opacity="0.4" />
  <use href="#x-mark" x="205" y="315" opacity="0.4" />

  <!-- Check mark (successful experiment) -->
  <use href="#check-mark" x="235" y="140" />
  <text x="250" y="144" fill="#10b981" font-family="system-ui" font-size="12">one success is enough</text>

  <!-- Data Points & Labels -->
  <g fill="#09090b" stroke="#8b5cf6" stroke-width="2">
    <circle cx="80.67" cy="295.00" r="4" />
    <circle cx="163.33" cy="173.11" r="4" />
    <circle cx="266.67" cy="99.06" r="4" />
    <circle cx="473.33" cy="51.63" r="4" />
    <circle cx="680.00" cy="42.29" r="4" />
  </g>

  <g fill="#d4d4d8" font-family="monospace" font-size="10" text-anchor="middle">
    <text x="80.67" y="283">0.15</text>
    <text x="163.33" y="161">0.56</text>
    <text x="266.67" y="87">0.80</text>
    <text x="473.33" y="39">0.96</text>
    <text x="680.00" y="30">0.99</text>
  </g>
</svg>