<svg xmlns="http://www.w3.org/2000/svg" viewBox="0 0 800 400" width="100%" height="100%">
  <defs>
    <marker id="arrow" viewBox="0 0 10 10" refX="8" refY="5" markerWidth="6" markerHeight="6" orient="auto">
      <path d="M 0 1 L 8 5 L 0 9 z" fill="#3f3f46" />
    </marker>
  </defs>
  
  <rect width="100%" height="100%" fill="#09090b" rx="4" />

  <path d="M 310 210 C 420 155, 550 105, 640 82 Q 690 74, 740 70 L 740 300 Q 670 300, 600 295 C 500 280, 420 240, 310 210 Z" fill="#14b8a6" opacity="0.06" stroke="none" />

  <path d="M 60 320 L 740 320" stroke="#3f3f46" stroke-width="1.5" fill="none" marker-end="url(#arrow)" />
  <path d="M 60 320 L 60 45" stroke="#3f3f46" stroke-width="1.5" fill="none" marker-end="url(#arrow)" />

  <path d="M 230 316 L 230 324" stroke="#71717a" stroke-width="1.5" fill="none" />

  <path d="M 310 210 L 310 320" stroke="#a1a1aa" stroke-width="1.5" stroke-dasharray="4 4" fill="none" />

  <path d="M 60 80 C 130 160, 200 195, 310 210 C 420 240, 500 280, 600 295 Q 670 300, 740 300" stroke="#ef4444" stroke-width="8" opacity="0.15" fill="none" />
  <path d="M 60 80 C 130 160, 200 195, 310 210 C 420 240, 500 280, 600 295 Q 670 300, 740 300" stroke="#ef4444" stroke-width="2.5" fill="none" />

  <path d="M 60 290 C 130 285, 200 260, 310 210 C 420 155, 550 105, 640 82 Q 690 74, 740 70" stroke="#14b8a6" stroke-width="8" opacity="0.15" fill="none" />
  <path d="M 60 290 C 130 285, 200 260, 310 210 C 420 155, 550 105, 640 82 Q 690 74, 740 70" stroke="#14b8a6" stroke-width="2.5" fill="none" />

  <circle cx="310" cy="210" r="4.5" fill="#09090b" stroke="#e4e4e7" stroke-width="2" />

  <text x="70" y="65" fill="#ef4444" font-size="10.5" font-family="system-ui, -apple-system, sans-serif" text-anchor="start">Models, tech stack, competitive edge</text>
  <text x="730" y="55" fill="#14b8a6" font-size="10.5" font-family="system-ui, -apple-system, sans-serif" text-anchor="end">Verified data, rubrics, verifiers, process knowledge</text>
  <text x="318" y="228" fill="#a1a1aa" font-size="12" font-family="system-ui, -apple-system, sans-serif" text-anchor="start">crossover</text>
  <text x="580" y="220" fill="#14b8a6" font-size="10" opacity="0.5" font-style="italic" font-family="system-ui, -apple-system, sans-serif" text-anchor="middle">compounding advantage</text>
  <text x="230" y="338" fill="#71717a" font-size="9" font-family="system-ui, -apple-system, sans-serif" text-anchor="middle">t = now</text>
  <text x="740" y="340" fill="#a1a1aa" font-size="12" font-family="system-ui, -apple-system, sans-serif" text-anchor="end">Time</text>
  <text x="60" y="30" fill="#a1a1aa" font-size="12" font-family="system-ui, -apple-system, sans-serif" text-anchor="middle">Value</text>
  <text x="400" y="380" fill="#71717a" font-size="13" font-family="system-ui, -apple-system, sans-serif" text-anchor="middle">The model depreciates. The data appreciates. Invest in the appreciating side.</text>
</svg>