<svg xmlns="http://www.w3.org/2000/svg" viewBox="0 0 1408 768" width="512" height="279">
  <g transform="translate(0,768) scale(0.1,-0.1)" fill="#10b981" stroke="none">
    <path d="M2930 7665 c-1745 -193 -2930 -1744 -2930 -3835 0 -2236 1409 -3831 3384 -3830 1031 1 1908 522 2426 1442 41 74 37 77 94 -55 324 -744 665 -1177 993 -1262 75 -20 2203 -23 2203 -3 0 6 -70 158 -157 337 -86 179 -245 512 -354 740 -228 476 -199 424 -235 410 -55 -21 -176 -39 -260 -39 -392 0 -636 241 -932 920 -124 286 -452 1086 -452 1104 0 15 23 74 851 2144 423 1058 769 1928 769 1933 0 5 -369 9 -924 9 l-924 0 -146 -367 c-445 -1117 -531 -1333 -536 -1333 -3 0 -18 28 -35 62 -563 1161 -1607 1759 -2835 1623z m778 -1599 c757 -165 1255 -1044 1254 -2211 0 -1470 -792 -2459 -1774 -2215 -875 218 -1385 1511 -1138 2886 194 1077 877 1711 1658 1540z"/>
    <path d="M8522 6873 c-177 -445 -322 -811 -322 -815 0 -5 443 -8 985 -8 l984 0 4 -2077 c4 -2227 1 -2112 52 -2406 175 -1016 897 -1568 2049 -1567 480 1 925 96 1339 288 103 48 98 21 47 268 -69 336 -117 569 -185 904 -37 179 -68 326 -69 327 -1 2 -47 -19 -102 -46 -554 -274 -1010 -192 -1144 206 -66 200 -63 80 -67 2191 l-4 1912 996 0 995 0 0 815 0 815 -2618 0 -2618 0 -322 -807z"/>
  </g>
</svg>
